<svg xmlns="http://www.w3.org/2000/svg" fill="none" viewBox="0 0 139 139">
  <g filter="url(#a)">
    <path fill="#1E293B" d="M136 69.5C136 32.773 106.227 3 69.5 3 32.773 3 3 32.773 3 69.5 3 106.227 32.773 136 69.5 136c36.727 0 66.5-29.773 66.5-66.5Z"/>
    <path stroke="url(#b)" stroke-width="4" d="M136 69.5C136 32.773 106.227 3 69.5 3 32.773 3 3 32.773 3 69.5 3 106.227 32.773 136 69.5 136c36.727 0 66.5-29.773 66.5-66.5Z"/>
  </g>
  <path fill="url(#c)" fill-rule="evenodd" d="M70 115c24.853 0 45-20.147 45-45S94.853 25 70 25 25 45.147 25 70s20.147 45 45 45ZM48.652 47.495c0 7.44 4.766 13.467 10.618 17.256 5.577 3.611 12.191-.13 17.852-3.609 7.154-4.396 16.436-4.842 24.204-.357a23.444 23.444 0 0 1 7.29 6.569c.551.762 1.855.4 1.78-.538-1.02-12.836-8.123-24.97-20.118-31.895-4.11-2.372-4.512-1.88-5.362-.836-1.286 1.578-3.598 4.415-21.282.529-5.468-1.202-11.623.12-13.579 5.364-.881 2.364-1.403 4.945-1.403 7.517ZM61.2 99.764c6.444-3.72 9.28-10.861 9.635-17.823.34-6.636-6.208-10.493-12.05-13.656-7.385-3.997-12.412-11.813-12.412-20.783 0-3.416.731-6.664 2.044-9.598.383-.858-.582-1.806-1.356-1.273-10.606 7.302-17.563 19.52-17.563 33.37 0 4.746.627 4.848 1.957 5.063 2.01.324 5.622.908 11.099 18.166 1.693 5.336 5.915 10.006 11.435 9.077 2.487-.419 4.983-1.257 7.211-2.543Zm18.734-36.429c6.207-3.173 13.81-4.287 20.253-.567 2.227 1.286 4.202 3.028 5.808 4.973 3.564 4.316 1.631 10.308-2.143 14.442-12.208 13.372-10.907 16.793-10.184 18.695.48 1.259.705 1.853-3.405 4.226-11.995 6.925-26.055 7.01-37.681 1.475-.85-.404-.51-1.714.425-1.81a23.456 23.456 0 0 0 9.333-3.029c7.769-4.485 12.024-12.746 11.793-21.14-.182-6.642-.115-14.24 5.801-17.265Z" clip-rule="evenodd"/>
  <defs>
    <linearGradient id="b" x1="6653" x2="6653" y1="3" y2="13303" gradientUnits="userSpaceOnUse">
      <stop offset="0" stop-color="#F9FCFF"/>
      <stop offset="0" stop-color="#A855F7"/>
      <stop offset="1" stop-color="#334155" stop-opacity="0"/>
    </linearGradient>
    <linearGradient id="c" x1="41.74" x2="99.34" y1="28.78" y2="110.86" gradientUnits="userSpaceOnUse">
      <stop stop-color="#FCECB2"/>
      <stop offset=".26" stop-color="#FF8B89"/>
      <stop offset=".521" stop-color="#FC8ADC"/>
      <stop offset=".755" stop-color="#7954FF"/>
      <stop offset="1" stop-color="#70BCFF"/>
    </linearGradient>
    <filter id="a" width="139" height="139" x="0" y="0" color-interpolation-filters="sRGB" filterUnits="userSpaceOnUse">
      <feFlood flood-opacity="0" result="BackgroundImageFix"/>
      <feBlend in="SourceGraphic" in2="BackgroundImageFix" result="shape"/>
      <feGaussianBlur result="effect1_foregroundBlur_1_4" stdDeviation=".5"/>
    </filter>
  </defs>
</svg>
